<svg width="24" height="18" viewBox="0 0 24 18" fill="none" xmlns="http://www.w3.org/2000/svg">
<path d="M3.43045 17.2178C2.43916 17.2178 1.69251 16.97 1.1905 16.4743C0.688502 15.9787 0.4375 15.2416 0.4375 14.263V3.73998C0.4375 2.75504 0.675793 2.01792 1.15238 1.52863C1.62896 1.03298 2.293 0.785156 3.1445 0.785156H20.4445C21.4358 0.785156 22.1825 1.03298 22.6845 1.52863C23.1865 2.01792 23.4375 2.75504 23.4375 3.73998V14.263C23.4375 15.2416 23.1992 15.9787 22.7226 16.4743C22.246 16.97 21.582 17.2178 20.7305 17.2178H3.43045ZM3.37326 15.7595H20.4922C20.9688 15.7595 21.3342 15.6324 21.5884 15.3782C21.8489 15.124 21.9791 14.7523 21.9791 14.263V3.73998C21.9791 3.25069 21.8489 2.87895 21.5884 2.62478C21.3342 2.3706 20.9688 2.24351 20.4922 2.24351H3.37326C2.90303 2.24351 2.53765 2.3706 2.27712 2.62478C2.02294 2.87895 1.89585 3.24751 1.89585 3.73045V14.2535C1.89585 14.7491 2.02294 15.124 2.27712 15.3782C2.53765 15.6324 2.90303 15.7595 3.37326 15.7595ZM11.9327 11.5083C11.6277 11.5083 11.3291 11.4511 11.0368 11.3368C10.7444 11.216 10.4617 11.0317 10.1884 10.7839L1.2191 2.71056L2.2104 1.70973L11.0177 9.64964C11.31 9.91017 11.615 10.0404 11.9327 10.0404C12.2568 10.0404 12.5618 9.91017 12.8478 9.64964L21.6551 1.70973L22.6464 2.71056L13.677 10.7839C13.4038 11.0317 13.121 11.216 12.8287 11.3368C12.5364 11.4511 12.2377 11.5083 11.9327 11.5083ZM2.35337 15.9978L1.36208 14.9969L8.12958 8.22942L9.12088 9.22071L2.35337 15.9978ZM21.5312 16.0073L14.7446 9.22071L15.7454 8.22942L22.5225 15.0065L21.5312 16.0073Z" fill="white"/>
</svg>
