<svg width="20" height="21" viewBox="0 0 20 21" fill="none" xmlns="http://www.w3.org/2000/svg">
<path d="M3.12234 20.0406C1.38453 20.0406 0.515625 19.4731 0.515625 18.3382C0.515625 17.6431 0.728418 16.9019 1.154 16.1145C1.57959 15.3272 2.19314 14.586 2.99466 13.8908C3.80328 13.1886 4.77858 12.6176 5.92057 12.1779C7.06965 11.7381 8.36769 11.5182 9.81468 11.5182C11.2546 11.5182 12.5455 11.7381 13.6875 12.1779C14.8366 12.6176 15.8119 13.1886 16.6134 13.8908C17.422 14.586 18.0391 15.3272 18.4647 16.1145C18.8903 16.9019 19.1031 17.6431 19.1031 18.3382C19.1031 19.4731 18.2342 20.0406 16.4964 20.0406H3.12234ZM2.62228 18.434H17.0071C17.1418 18.434 17.2376 18.4127 17.2943 18.3701C17.3582 18.3276 17.3901 18.2496 17.3901 18.1361C17.3901 17.6963 17.2234 17.1927 16.89 16.6252C16.5638 16.0578 16.0779 15.5081 15.4324 14.9761C14.7869 14.4441 13.9925 14.0043 13.0491 13.6568C12.1128 13.3021 11.0347 13.1248 9.81468 13.1248C8.59466 13.1248 7.51297 13.3021 6.56958 13.6568C5.6262 14.0043 4.83178 14.4441 4.1863 14.9761C3.54083 15.5081 3.05141 16.0578 2.71803 16.6252C2.39175 17.1927 2.22861 17.6963 2.22861 18.1361C2.22861 18.2496 2.25698 18.3276 2.31373 18.3701C2.37756 18.4127 2.48041 18.434 2.62228 18.434ZM9.81468 10.1883C8.9706 10.1883 8.201 9.96482 7.50587 9.51795C6.81075 9.07109 6.25394 8.47172 5.83545 7.71985C5.42405 6.96089 5.21835 6.12745 5.21835 5.21954C5.21835 4.31871 5.42405 3.49946 5.83545 2.76178C6.25394 2.02409 6.81075 1.43537 7.50587 0.995596C8.201 0.555824 8.9706 0.335938 9.81468 0.335938C10.6658 0.335938 11.439 0.552277 12.1341 0.984956C12.8292 1.41763 13.3825 2.00282 13.7939 2.7405C14.2053 3.47109 14.411 4.29034 14.411 5.19826C14.411 6.11327 14.2018 6.95025 13.7833 7.70921C13.3719 8.46108 12.8186 9.064 12.1235 9.51795C11.4284 9.96482 10.6588 10.1883 9.81468 10.1883ZM9.81468 8.58166C10.3396 8.58166 10.8184 8.43271 11.251 8.1348C11.6908 7.8298 12.0419 7.42194 12.3044 6.91124C12.5668 6.39344 12.698 5.82245 12.698 5.19826C12.698 4.58116 12.5668 4.0279 12.3044 3.53847C12.049 3.04195 11.7014 2.65183 11.2617 2.36811C10.829 2.08439 10.3467 1.94252 9.81468 1.94252C9.28979 1.94252 8.80746 2.08793 8.36769 2.37875C7.93501 2.66247 7.58744 3.05259 7.325 3.54911C7.06256 4.04563 6.93133 4.60244 6.93133 5.21954C6.93133 5.84373 7.06256 6.41118 7.325 6.92188C7.59454 7.43258 7.94565 7.83689 8.37832 8.1348C8.8181 8.43271 9.29688 8.58166 9.81468 8.58166Z" fill="white"/>
</svg>
