<svg width="27" height="20" viewBox="0 0 27 20" fill="none" xmlns="http://www.w3.org/2000/svg">
<path d="M4.32865 19.4979C3.20547 19.4979 2.35948 19.2171 1.79069 18.6555C1.2219 18.0939 0.9375 17.2587 0.9375 16.1499V4.22686C0.9375 3.11088 1.2075 2.27569 1.74749 1.72129C2.28748 1.1597 3.03987 0.878906 4.00466 0.878906H23.6064C24.7296 0.878906 25.5756 1.1597 26.1444 1.72129C26.7132 2.27569 26.9975 3.11088 26.9975 4.22686V16.1499C26.9975 17.2587 26.7276 18.0939 26.1876 18.6555C25.6476 19.2171 24.8952 19.4979 23.9304 19.4979H4.32865ZM4.26385 17.8455H23.6604C24.2004 17.8455 24.6144 17.7015 24.9024 17.4135C25.1976 17.1255 25.3452 16.7043 25.3452 16.1499V4.22686C25.3452 3.67247 25.1976 3.25127 24.9024 2.96328C24.6144 2.67528 24.2004 2.53128 23.6604 2.53128H4.26385C3.73106 2.53128 3.31707 2.67528 3.02187 2.96328C2.73388 3.25127 2.58988 3.66887 2.58988 4.21606V16.1391C2.58988 16.7007 2.73388 17.1255 3.02187 17.4135C3.31707 17.7015 3.73106 17.8455 4.26385 17.8455ZM13.9621 13.0287C13.6165 13.0287 13.2781 12.9639 12.9469 12.8343C12.6157 12.6975 12.2953 12.4887 11.9858 12.208L1.82309 3.06048L2.94627 1.92649L12.9253 10.9228C13.2565 11.218 13.6021 11.3656 13.9621 11.3656C14.3293 11.3656 14.6749 11.218 14.9989 10.9228L24.978 1.92649L26.1012 3.06048L15.9385 12.208C15.6289 12.4887 15.3085 12.6975 14.9773 12.8343C14.6461 12.9639 14.3077 13.0287 13.9621 13.0287ZM3.10827 18.1155L1.98509 16.9815L9.65298 9.31359L10.7762 10.4368L3.10827 18.1155ZM24.8376 18.1263L17.1481 10.4368L18.2821 9.31359L25.9608 16.9923L24.8376 18.1263Z" fill="white"/>
</svg>
