<svg width="26" height="23" viewBox="0 0 26 23" fill="none" xmlns="http://www.w3.org/2000/svg">
<path d="M9.61824 21.2793V14.4061C9.61824 14.1649 9.69272 13.9699 9.84167 13.8209C9.99063 13.6719 10.1892 13.5975 10.4375 13.5975H14.9806C15.2289 13.5975 15.4239 13.6719 15.5658 13.8209C15.7148 13.9699 15.7892 14.1649 15.7892 14.4061V21.2793H9.61824ZM0.91501 11.3631C0.631286 11.3631 0.407853 11.278 0.244712 11.1078C0.0815706 10.9305 0 10.7319 0 10.512C0 10.2353 0.11349 10.0048 0.340469 9.8204L11.427 0.510703C11.8242 0.170234 12.2498 0 12.7037 0C13.1577 0 13.5833 0.170234 13.9805 0.510703L25.067 9.8204C25.294 10.0048 25.4075 10.2353 25.4075 10.512C25.4075 10.7319 25.3259 10.9305 25.1628 11.1078C25.0067 11.278 24.7833 11.3631 24.4925 11.3631C24.3435 11.3631 24.2052 11.3277 24.0775 11.2567C23.9569 11.1858 23.8435 11.1078 23.7371 11.0227L13.0761 2.07473C12.9626 1.97543 12.8385 1.92578 12.7037 1.92578C12.569 1.92578 12.4448 1.97543 12.3314 2.07473L1.68106 11.0227C1.56757 11.1078 1.44699 11.1858 1.31932 11.2567C1.19873 11.3277 1.06396 11.3631 0.91501 11.3631ZM19.6302 5.71349V3.17062C19.6302 2.93654 19.7011 2.75212 19.8429 2.61735C19.9848 2.47549 20.1692 2.40456 20.3962 2.40456H21.5346C21.7687 2.40456 21.9531 2.47549 22.0879 2.61735C22.2298 2.75212 22.3007 2.93654 22.3007 3.17062V7.9691L19.6302 5.71349ZM5.51134 22.3752C4.75238 22.3752 4.1601 22.1695 3.73452 21.7581C3.31602 21.3538 3.10678 20.7757 3.10678 20.0238V8.23509L4.81976 7.08601V19.5982C4.81976 19.9458 4.90842 20.2082 5.08575 20.3856C5.27017 20.57 5.53262 20.6622 5.87309 20.6622H19.545C19.8855 20.6622 20.1444 20.57 20.3217 20.3856C20.4991 20.2082 20.5877 19.9458 20.5877 19.5982V7.07537L22.3007 8.23509V20.0238C22.3007 20.7686 22.0915 21.3467 21.673 21.7581C21.2545 22.1695 20.6657 22.3752 19.9068 22.3752H5.51134Z" fill="white"/>
</svg>
