<svg width="25" height="22" viewBox="0 0 25 22" fill="none" xmlns="http://www.w3.org/2000/svg">
<path d="M1.38413 10.7738L1.39477 8.96504C3.02618 9.61051 4.77463 10.0928 6.64011 10.412C8.51269 10.7241 10.4704 10.8802 12.5132 10.8802C14.5631 10.8802 16.5208 10.7241 18.3863 10.412C20.2589 10.0928 22.0109 9.61406 23.6423 8.97568L23.6529 10.7738C21.9789 11.3625 20.2057 11.8023 18.3331 12.0931C16.4605 12.3839 14.5205 12.5293 12.5132 12.5293C10.5129 12.5293 8.57653 12.3839 6.70395 12.0931C4.83137 11.8023 3.0581 11.3625 1.38413 10.7738ZM10.8641 14.4551C10.0767 14.4551 9.68305 14.0685 9.68305 13.2954V11.6569H15.354V13.2954C15.354 14.0685 14.9603 14.4551 14.173 14.4551H10.8641ZM3.49078 21.4985C2.39844 21.4985 1.57564 21.229 1.02238 20.6899C0.476209 20.1579 0.203125 19.3458 0.203125 18.2535V7.90107C0.203125 6.80874 0.476209 5.99658 1.02238 5.46459C1.57564 4.92552 2.39844 4.65598 3.49078 4.65598H21.5463C22.6457 4.65598 23.4685 4.92552 24.0147 5.46459C24.5608 5.99658 24.8339 6.80874 24.8339 7.90107V18.2535C24.8339 19.3458 24.5608 20.1579 24.0147 20.6899C23.4685 21.229 22.6457 21.4985 21.5463 21.4985H3.49078ZM3.51206 19.7962H21.525C22.0428 19.7962 22.4364 19.6614 22.706 19.3919C22.9826 19.1224 23.1209 18.7145 23.1209 18.1683V7.98619C23.1209 7.44002 22.9826 7.03217 22.706 6.76263C22.4364 6.49309 22.0428 6.35833 21.525 6.35833H3.51206C2.99426 6.35833 2.59705 6.49309 2.32042 6.76263C2.05088 7.03217 1.91611 7.44002 1.91611 7.98619V18.1683C1.91611 18.7145 2.05088 19.1224 2.32042 19.3919C2.59705 19.6614 2.99426 19.7962 3.51206 19.7962ZM7.1189 5.58163V3.81545C7.1189 2.81532 7.38843 2.07764 7.92751 1.6024C8.46659 1.12007 9.19008 0.878906 10.098 0.878906H14.9284C15.8931 0.878906 16.6307 1.12007 17.1414 1.6024C17.6521 2.07764 17.9075 2.81532 17.9075 3.81545V5.56035H16.2584V3.69841C16.2584 3.29411 16.1449 2.98201 15.9179 2.76212C15.6909 2.54224 15.3717 2.43229 14.9603 2.43229H10.0767C9.65823 2.43229 9.33549 2.54224 9.10851 2.76212C8.88153 2.98201 8.76804 3.29411 8.76804 3.69841V5.58163H7.1189Z" fill="white"/>
</svg>
