<svg width="16" height="16" viewBox="0 0 16 16" fill="none" xmlns="http://www.w3.org/2000/svg">
<rect width="16" height="16" rx="8" fill="black"/>
<path d="M3.54688 4.38281H5.86774C7.97136 4.38281 9.04701 5.62273 9.04701 7.99658C9.04701 10.3651 7.96606 11.6157 5.86774 11.6157H3.54688V4.38281ZM4.47416 5.20942V10.789H5.81476C7.31431 10.789 8.08793 9.89355 8.08793 7.99658C8.08793 6.15261 7.3514 5.20942 5.81476 5.20942H4.47416Z" fill="white"/>
<path d="M9.99609 4.38281C11.6071 4.38286 12.3223 5.40592 12.3223 6.54004C12.3222 7.72696 11.6125 8.3258 10.9766 8.55371L12.4502 11.6172H11.3955L10.0596 8.73926H9.36523C9.39056 8.50101 9.40623 8.25231 9.40625 7.99316C9.40625 7.97169 9.40447 7.95004 9.4043 7.92871H9.83691C10.8492 7.92871 11.3682 7.44603 11.3682 6.59277C11.3681 5.67066 10.7798 5.19922 9.87891 5.19922H8.63184C8.5945 5.15072 8.55582 5.10349 8.51562 5.05762C8.26589 4.77281 7.96881 4.54904 7.62988 4.38281H9.99609ZM8.30566 11.6172H7.60352C7.86268 11.4922 8.09715 11.3337 8.30566 11.1406V11.6172ZM7.38281 6.34375C7.59823 6.71979 7.72361 7.2582 7.72363 7.99316C7.72355 8.73619 7.59516 9.27113 7.38281 9.64355V6.34375Z" fill="url(#paint0_linear_4473_3744)"/>
<defs>
<linearGradient id="paint0_linear_4473_3744" x1="12.2776" y1="6.94254" x2="5.96951" y2="9.05746" gradientUnits="userSpaceOnUse">
<stop stop-color="white"/>
<stop offset="1"/>
</linearGradient>
</defs>
</svg>
