<svg width="49" height="41" viewBox="0 0 49 41" fill="none" xmlns="http://www.w3.org/2000/svg">
<path d="M48.7617 20.6328C48.7617 21.5469 48.4316 22.3255 47.7715 22.9688L31.0898 39.5996C30.4297 40.2598 29.6934 40.5898 28.8809 40.5898C27.9499 40.5898 27.1966 40.3021 26.6211 39.7266C26.0456 39.151 25.7578 38.4401 25.7578 37.5938C25.7578 37.1198 25.8424 36.6966 26.0117 36.3242C26.1979 35.9518 26.4349 35.6217 26.7227 35.334L32.4102 29.5957L41.4238 21.3691L42.5918 23.2734L33.3496 23.8066H3.38867C2.42383 23.8066 1.64518 23.5189 1.05273 22.9434C0.460286 22.3509 0.164062 21.5807 0.164062 20.6328C0.164062 19.7018 0.460286 18.9486 1.05273 18.373C1.64518 17.7806 2.42383 17.4844 3.38867 17.4844H33.3496L42.5918 17.9922L41.4238 19.9473L32.4102 11.6699L26.7227 5.93164C26.4349 5.64388 26.1979 5.3138 26.0117 4.94141C25.8424 4.55208 25.7578 4.12891 25.7578 3.67188C25.7578 2.82552 26.0456 2.11458 26.6211 1.53906C27.1966 0.963542 27.9499 0.675781 28.8809 0.675781C29.2702 0.675781 29.651 0.760417 30.0234 0.929688C30.4128 1.08203 30.7852 1.33594 31.1406 1.69141L47.7715 18.2969C48.4316 18.9401 48.7617 19.7188 48.7617 20.6328Z" fill="black"/>
</svg>
