<svg width="14" height="16" viewBox="0 0 14 16" fill="none" xmlns="http://www.w3.org/2000/svg">
<circle cx="7" cy="3.96094" r="2.66406" stroke="black"/>
<path d="M10.1953 10.1055L10.1953 9.60547H10.1953V10.1055ZM12.6445 11.6758L13.0796 11.4293L13.0795 11.4293L12.6445 11.6758ZM13.0195 15.2031V15.7031H13.5195V15.2031H13.0195ZM0.984375 15.2031H0.484375V15.7031H0.984375V15.2031ZM1.35938 11.6758L0.924364 11.4293L0.924347 11.4293L1.35938 11.6758ZM3.80859 10.1055L3.80859 9.60547L3.80858 9.60547L3.80859 10.1055ZM10.1953 10.1055L10.1953 10.6055C10.5996 10.6055 10.9368 10.6698 11.2443 10.8457C11.5533 11.0225 11.8788 11.3387 12.2095 11.9223L12.6445 11.6758L13.0795 11.4293C12.6865 10.7357 12.2462 10.2668 11.7409 9.97772C11.2341 9.6878 10.7086 9.60549 10.1953 9.60547L10.1953 10.1055ZM12.6445 11.6758L12.2095 11.9223C12.209 11.9213 12.214 11.9302 12.2228 11.9537C12.2313 11.9763 12.2412 12.0068 12.2522 12.0462C12.2742 12.1255 12.2966 12.2279 12.3184 12.3521C12.3621 12.6002 12.3995 12.9104 12.4298 13.2484C12.4902 13.9237 12.5195 14.6779 12.5195 15.2031H13.0195H13.5195C13.5195 14.6492 13.489 13.8651 13.4258 13.1592C13.3942 12.8065 13.3538 12.4654 13.3033 12.1786C13.2568 11.915 13.1909 11.6258 13.0796 11.4293L12.6445 11.6758ZM13.0195 15.2031V14.7031H0.984375V15.2031V15.7031H13.0195V15.2031ZM0.984375 15.2031H1.48438C1.48438 14.6779 1.51367 13.9237 1.57413 13.2484C1.60439 12.9104 1.64176 12.6002 1.68547 12.3521C1.70735 12.2279 1.72974 12.1255 1.75175 12.0462C1.76267 12.0068 1.77263 11.9763 1.78112 11.9537C1.78994 11.9302 1.79495 11.9213 1.7944 11.9223L1.35938 11.6758L0.924347 11.4293C0.813014 11.6258 0.747068 11.915 0.70064 12.1786C0.650106 12.4654 0.609688 12.8065 0.578113 13.1592C0.51491 13.8651 0.484375 14.6492 0.484375 15.2031H0.984375ZM1.35938 11.6758L1.79439 11.9223C2.12507 11.3387 2.45061 11.0225 2.75959 10.8457C3.06713 10.6698 3.40432 10.6055 3.80861 10.6055L3.80859 10.1055L3.80858 9.60547C3.29535 9.60549 2.76977 9.6878 2.26301 9.97772C1.75768 10.2668 1.31738 10.7357 0.924364 11.4293L1.35938 11.6758ZM3.80859 10.1055V10.6055H10.1953V10.1055V9.60547H3.80859V10.1055Z" fill="black"/>
</svg>
