<svg width="16" height="16" viewBox="0 0 16 16" fill="none" xmlns="http://www.w3.org/2000/svg">
<path d="M7.77246 0.8125L7.77246 0.3125L7.77246 0.3125L7.77246 0.8125ZM14.5527 3.78223L15.0527 3.78223L15.0527 3.59543L14.9303 3.45438L14.5527 3.78223ZM7.77246 15.3232L7.77242 15.8232H7.77246V15.3232ZM0.992188 3.78223L0.61467 3.45438L0.492185 3.59543L0.492188 3.78223L0.992188 3.78223ZM7.77246 0.8125V1.3125C9.37441 1.3125 10.5625 1.55174 11.5457 2.00754C12.5281 2.46302 13.3431 3.1519 14.1752 4.11007L14.5527 3.78223L14.9303 3.45438C14.0407 2.43004 13.1176 1.63407 11.9663 1.1003C10.8157 0.566872 9.47448 0.3125 7.77246 0.3125V0.8125ZM14.5527 3.78223L14.0527 3.78222C14.0527 8.24577 12.6966 11.0092 11.2425 12.6503C10.512 13.4748 9.75021 14.0235 9.10841 14.3642C8.44932 14.7141 7.95862 14.8232 7.77246 14.8232V15.3232V15.8232C8.19191 15.8232 8.85155 15.6328 9.57729 15.2475C10.3203 14.8531 11.1779 14.2311 11.991 13.3134C13.6243 11.4701 15.0527 8.46295 15.0527 3.78223L14.5527 3.78223ZM7.77246 15.3232L7.7725 14.8232C7.58628 14.8232 7.09555 14.7141 6.43646 14.3642C5.79464 14.0235 5.0329 13.4747 4.30234 12.6501C2.84831 11.009 1.49224 8.24567 1.49219 3.78222L0.992188 3.78223L0.492188 3.78223C0.492242 8.46286 1.92062 11.4699 3.55386 13.3133C4.36693 14.231 5.22452 14.853 5.96756 15.2474C6.69332 15.6327 7.35295 15.8232 7.77242 15.8232L7.77246 15.3232ZM0.992188 3.78223L1.3697 4.11007C2.20178 3.15191 3.01683 2.46303 3.99927 2.00756C4.98243 1.55175 6.17054 1.31251 7.77246 1.3125L7.77246 0.8125L7.77246 0.3125C6.07046 0.312508 4.72925 0.566884 3.57866 1.10031C2.42735 1.63408 1.50422 2.43005 0.61467 3.45438L0.992188 3.78223Z" fill="black"/>
<path d="M5.08594 7.563L6.95982 9.56054L10.4579 5.8125" stroke="black"/>
</svg>
