<svg width="16" height="16" viewBox="0 0 16 16" fill="none" xmlns="http://www.w3.org/2000/svg">
<path d="M1.74353 1.76841L1.24467 1.73465L1.74353 1.76841ZM15.0947 14.0965L15.5936 14.0628L15.0947 14.0965ZM14.2604 1.76841L13.7615 1.80217L14.5959 14.1303L15.0947 14.0965L15.5936 14.0628L14.7592 1.73465L14.2604 1.76841ZM14.097 15.1641V14.6641H1.90688V15.1641V15.6641H14.097V15.1641ZM0.909164 14.0965L1.40802 14.1303L2.24239 1.80217L1.74353 1.76841L1.24467 1.73465L0.410305 14.0628L0.909164 14.0965ZM2.74125 0.835938V1.33594H13.2627V0.835938V0.335938H2.74125V0.835938ZM1.74353 1.76841L2.24239 1.80217C2.26015 1.53974 2.47821 1.33594 2.74125 1.33594V0.835938V0.335938C1.95214 0.335938 1.29796 0.947337 1.24467 1.73465L1.74353 1.76841ZM1.90688 15.1641V14.6641C1.61745 14.6641 1.38848 14.4191 1.40802 14.1303L0.909164 14.0965L0.410305 14.0628C0.351673 14.9291 1.03859 15.6641 1.90688 15.6641V15.1641ZM15.0947 14.0965L14.5959 14.1303C14.6154 14.4191 14.3865 14.6641 14.097 14.6641V15.1641V15.6641C14.9653 15.6641 15.6522 14.9291 15.5936 14.0628L15.0947 14.0965ZM14.2604 1.76841L14.7592 1.73465C14.7059 0.947338 14.0518 0.335938 13.2627 0.335938V0.835938V1.33594C13.5257 1.33594 13.7438 1.53974 13.7615 1.80217L14.2604 1.76841Z" fill="black"/>
<path d="M4.38281 3.76562C4.39329 4.92057 5.12982 7.23047 7.99219 7.23047C10.8546 7.23047 11.5843 4.92057 11.5913 3.76562" stroke="black"/>
</svg>
