<svg width="16" height="14" viewBox="0 0 16 14" fill="none" xmlns="http://www.w3.org/2000/svg">
<path d="M4.28906 0.550781L4.23869 0.0533248L4.23867 0.0533268L4.28906 0.550781ZM7.99805 2.40137L7.51627 2.53513C7.57634 2.7515 7.7733 2.90128 7.99785 2.90137C8.22241 2.90145 8.41948 2.75182 8.47972 2.5355L7.99805 2.40137ZM11.708 0.551758L11.7584 0.0543034L11.7584 0.0543025L11.708 0.551758ZM15.0215 4.81641L15.5187 4.86885L15.5187 4.86879L15.0215 4.81641ZM12.1582 9.68164L12.5249 10.0216L12.5249 10.0216L12.1582 9.68164ZM8 13.4795L7.66929 13.1045C7.56166 13.1994 7.5 13.336 7.5 13.4795H8ZM8 13.4814L7.64645 13.835C7.78945 13.978 8.0045 14.0208 8.19134 13.9434C8.37818 13.866 8.5 13.6837 8.5 13.4814H8ZM7.99902 13.4805L8.35258 13.1269C8.15731 12.9317 7.84073 12.9317 7.64547 13.1269L7.99902 13.4805ZM7.99707 13.4824H7.49707C7.49707 13.6847 7.61889 13.867 7.80573 13.9444C7.99257 14.0218 8.20762 13.979 8.35062 13.836L7.99707 13.4824ZM7.99707 13.4785H8.49707C8.49707 13.335 8.43541 13.1984 8.32779 13.1035L7.99707 13.4785ZM3.83887 9.67969L3.4722 10.0196L3.47221 10.0196L3.83887 9.67969ZM0.974609 4.81445L0.477356 4.86679L0.477361 4.86684L0.974609 4.81445ZM4.28906 0.550781L4.33943 1.04824C5.53434 0.927249 6.29332 1.21139 6.76317 1.54986C7.24554 1.89735 7.45855 2.32723 7.51627 2.53513L7.99805 2.40137L8.47982 2.26761C8.36501 1.85409 8.02562 1.22684 7.34768 0.738466C6.65722 0.241077 5.64797 -0.0893696 4.23869 0.0533248L4.28906 0.550781ZM7.99805 2.40137L8.47972 2.5355C8.53768 2.32734 8.75114 1.89762 9.23385 1.55033C9.70408 1.21204 10.4632 0.92825 11.6576 1.04921L11.708 0.551758L11.7584 0.0543025C10.3498 -0.088359 9.34055 0.241667 8.64985 0.738583C7.97164 1.22651 7.63161 1.8534 7.51637 2.26724L7.99805 2.40137ZM11.708 0.551758L11.6576 1.04921C12.8059 1.16553 13.5447 1.71896 13.9897 2.41543C14.4454 3.12868 14.6034 4.01231 14.5242 4.76402L15.0215 4.81641L15.5187 4.86879C15.6185 3.92177 15.4254 2.80532 14.8324 1.87706C14.2287 0.932013 13.2213 0.202483 11.7584 0.0543034L11.708 0.551758ZM15.0215 4.81641L14.5242 4.76397C14.3935 6.00407 13.5876 7.40446 11.7915 9.3417L12.1582 9.68164L12.5249 10.0216C14.3481 8.05501 15.352 6.44994 15.5187 4.86885L15.0215 4.81641ZM12.1582 9.68164L11.7915 9.3417C10.006 11.2675 8.72192 12.1762 7.66929 13.1045L8 13.4795L8.33071 13.8545C9.3127 12.9885 10.6946 11.9956 12.5249 10.0216L12.1582 9.68164ZM8 13.4795H7.5V13.4814H8H8.5V13.4795H8ZM8 13.4814L8.35355 13.1279L8.35258 13.1269L7.99902 13.4805L7.64547 13.834L7.64645 13.835L8 13.4814ZM7.99902 13.4805L7.64547 13.1269L7.64352 13.1289L7.99707 13.4824L8.35062 13.836L8.35258 13.834L7.99902 13.4805ZM7.99707 13.4824H8.49707V13.4785H7.99707H7.49707V13.4824H7.99707ZM7.99707 13.4785L8.32779 13.1035C7.27531 12.1753 5.99121 11.2658 4.20553 9.33975L3.83887 9.67969L3.47221 10.0196C5.30264 11.9939 6.68411 12.9873 7.66635 13.8535L7.99707 13.4785ZM3.83887 9.67969L4.20553 9.33975C2.4092 7.4022 1.6025 6.00208 1.47186 4.76207L0.974609 4.81445L0.477361 4.86684C0.64396 6.44818 1.64904 8.05313 3.4722 10.0196L3.83887 9.67969ZM0.974609 4.81445L1.47186 4.76211C1.39275 4.01051 1.55106 3.12715 2.00693 2.41411C2.4521 1.71783 3.19115 1.16455 4.33945 1.04824L4.28906 0.550781L4.23867 0.0533268C2.77601 0.201488 1.76843 0.930698 1.16441 1.87545C0.5711 2.80346 0.377668 3.9197 0.477356 4.86679L0.974609 4.81445Z" fill="black"/>
</svg>
