<svg width="16" height="17" viewBox="0 0 16 17" fill="none" xmlns="http://www.w3.org/2000/svg">
<mask id="path-1-inside-1_5101_6192" fill="white">
<path d="M7.65889 14.2559C7.61373 14.3059 7.56688 14.3548 7.51871 14.403C5.97668 15.945 3.47639 15.9457 1.93436 14.4037C0.393854 12.8631 0.392692 10.3665 1.93022 8.82416L1.92607 8.82002L9.71875 1.02734L15.3031 6.61169L7.65889 14.2559Z"/>
</mask>
<path d="M7.65889 14.2559C7.61373 14.3059 7.56688 14.3548 7.51871 14.403C5.97668 15.945 3.47639 15.9457 1.93436 14.4037C0.393854 12.8631 0.392692 10.3665 1.93022 8.82416L1.92607 8.82002L9.71875 1.02734L15.3031 6.61169L7.65889 14.2559Z" fill="white"/>
<path d="M7.65889 14.2559L6.95178 13.5488L6.93383 13.5667L6.91682 13.5856L7.65889 14.2559ZM7.51871 14.403L8.22582 15.1101L8.2259 15.11L7.51871 14.403ZM1.93436 14.4037L1.22725 15.1108L1.22725 15.1108L1.93436 14.4037ZM1.93022 8.82416L2.63844 9.53015L3.34332 8.82305L2.63732 8.11706L1.93022 8.82416ZM1.92607 8.82002L1.21897 8.11291L0.511861 8.82002L1.21897 9.52713L1.92607 8.82002ZM9.71875 1.02734L10.4259 0.320237L9.71875 -0.38687L9.01164 0.320237L9.71875 1.02734ZM15.3031 6.61169L16.0102 7.3188L16.7173 6.61169L16.0102 5.90459L15.3031 6.61169ZM7.65889 14.2559L6.91682 13.5856C6.88472 13.6211 6.84974 13.6577 6.81152 13.696L7.51871 14.403L8.2259 15.11C8.28401 15.0519 8.34274 14.9907 8.40095 14.9262L7.65889 14.2559ZM7.51871 14.403L6.8116 13.6959C5.65987 14.8476 3.79274 14.8478 2.64147 13.6966L1.93436 14.4037L1.22725 15.1108C3.16003 17.0436 6.29349 17.0424 8.22582 15.1101L7.51871 14.403ZM1.93436 14.4037L2.64147 13.6966C1.49122 12.5463 1.49021 10.682 2.63844 9.53015L1.93022 8.82416L1.222 8.11817C-0.704831 10.0511 -0.703513 13.18 1.22725 15.1108L1.93436 14.4037ZM1.93022 8.82416L2.63732 8.11706L2.63318 8.11291L1.92607 8.82002L1.21897 9.52713L1.22311 9.53127L1.93022 8.82416ZM1.92607 8.82002L2.63318 9.52713L10.4259 1.73445L9.71875 1.02734L9.01164 0.320237L1.21897 8.11291L1.92607 8.82002ZM9.71875 1.02734L9.01164 1.73445L14.596 7.3188L15.3031 6.61169L16.0102 5.90459L10.4259 0.320237L9.71875 1.02734ZM15.3031 6.61169L14.596 5.90459L6.95178 13.5488L7.65889 14.2559L8.36599 14.963L16.0102 7.3188L15.3031 6.61169Z" fill="black" mask="url(#path-1-inside-1_5101_6192)"/>
<mask id="path-3-inside-2_5101_6192" fill="white">
<path d="M8.56934 11.6943L8.56348 11.8975C8.45793 13.984 6.73286 15.6436 4.62012 15.6436C2.44006 15.6434 0.672734 13.8762 0.671875 11.6963V0.675781H8.56934V11.6943Z"/>
</mask>
<path d="M8.56934 11.6943L8.56348 11.8975C8.45793 13.984 6.73286 15.6436 4.62012 15.6436C2.44006 15.6434 0.672734 13.8762 0.671875 11.6963V0.675781H8.56934V11.6943Z" fill="white"/>
<path d="M8.56934 11.6943L9.56892 11.7232L9.56934 11.7088V11.6943H8.56934ZM8.56348 11.8975L9.5622 11.948L9.56275 11.9371L9.56306 11.9263L8.56348 11.8975ZM4.62012 15.6436L4.62003 16.6436H4.62012V15.6436ZM0.671875 11.6963L-0.328125 11.6963L-0.328125 11.6967L0.671875 11.6963ZM0.671875 0.675781V-0.324219H-0.328125V0.675781H0.671875ZM8.56934 0.675781H9.56934V-0.324219H8.56934V0.675781ZM8.56934 11.6943L7.56975 11.6655L7.56389 11.8686L8.56348 11.8975L9.56306 11.9263L9.56892 11.7232L8.56934 11.6943ZM8.56348 11.8975L7.56475 11.8469C7.48597 13.4043 6.19736 14.6436 4.62012 14.6436V15.6436V16.6436C7.26836 16.6436 9.42988 14.5636 9.5622 11.948L8.56348 11.8975ZM4.62012 15.6436L4.62021 14.6436C2.99234 14.6434 1.67252 13.3238 1.67187 11.6959L0.671875 11.6963L-0.328125 11.6967C-0.327049 14.4286 1.88777 16.6433 4.62003 16.6436L4.62012 15.6436ZM0.671875 11.6963H1.67188V0.675781H0.671875H-0.328125V11.6963H0.671875ZM0.671875 0.675781V1.67578H8.56934V0.675781V-0.324219H0.671875V0.675781ZM8.56934 0.675781H7.56934V11.6943H8.56934H9.56934V0.675781H8.56934Z" fill="black" mask="url(#path-3-inside-2_5101_6192)"/>
<circle cx="4.71289" cy="11.6113" r="0.900395" fill="black"/>
</svg>
