<svg width="17" height="17" viewBox="0 0 17 17" fill="none" xmlns="http://www.w3.org/2000/svg">
<style>
  path, rect, circle {
    stroke: black;
    fill: black;
  }

  @media (prefers-color-scheme: dark) {
    path, rect, circle {
      stroke: white;
      fill: white;
    }
  }
</style>
<g clip-path="url(#clip0_4499_6328)">
<path d="M3.09899 10.6867C2.68185 10.6701 2.34056 10.556 2.07371 10.344C2.02278 10.3035 1.90142 10.1821 1.86071 10.1309C1.75249 9.99478 1.67892 9.86236 1.62985 9.71543C1.47885 9.26314 1.55657 8.66964 1.85214 8.01829C2.10521 7.46064 2.49571 6.90757 3.17699 6.14158C3.27735 6.02886 3.57621 5.69922 3.57813 5.69922C3.57885 5.69922 3.56256 5.72743 3.54206 5.76179C3.36492 6.0585 3.21335 6.408 3.13078 6.71057C2.99814 7.19607 3.01414 7.61272 3.17764 7.93579C3.29042 8.15836 3.48378 8.35114 3.70121 8.45771C4.08185 8.64421 4.63913 8.65964 5.3197 8.50286C5.36656 8.492 7.68841 7.87564 10.4794 7.13314C13.2704 6.39057 15.5543 5.7835 15.5547 5.784C15.5555 5.78465 9.07041 8.55964 5.70392 9.99928C5.17078 10.2272 5.0282 10.2848 4.77756 10.3728C4.13685 10.5978 3.56292 10.7051 3.09899 10.6867Z" fill="black"/>
</g>
<defs>
<clipPath id="clip0_4499_6328">
<rect width="14" height="4.98946" fill="white" transform="translate(1.55469 5.69922)"/>
</clipPath>
</defs>
</svg>
