<svg xmlns="http://www.w3.org/2000/svg" style="display:none;">
  <symbol id="nikewatermark" viewBox="0 0 200 1080" fill="currentColor">
    <g clip-path="url(#clip0)">
        <path d="M-3.2486 74.2847L-5.36145 86.4225H-33.2332L-31.0754 74.2847H-3.2486ZM-16.6001 20.9688L-27.9735 86.4225H-42.8984L-31.6149 20.9688H-16.6001ZM-2.12472 46.9524L-4.14767 58.6855H-28.3781L-26.3102 46.9524H-2.12472ZM6.14689 20.9688L4.03403 33.1514H-24.0176L-21.8597 20.9688H6.14689Z" fill="currentColor"/>
        <path d="M254.272 20.9688L242.943 86.4225H228.333L219.342 45.1093L212.15 86.4225H197.18L208.463 20.9688H223.163L232.154 62.2819L239.302 20.9688H254.272Z" fill="currentColor"/>
        <path d="M-3.2486 604.793L-5.36145 616.93H-33.2332L-31.0754 604.793H-3.2486ZM-16.6001 551.477L-27.9735 616.93H-42.8984L-31.6149 551.477H-16.6001ZM-2.12472 577.46L-4.14767 589.193H-28.3781L-26.3102 577.46H-2.12472ZM6.14689 551.477L4.03403 563.659H-24.0176L-21.8597 551.477H6.14689Z" fill="currentColor"/>
        <path d="M254.272 551.477L242.943 616.93H228.333L219.342 575.617L212.15 616.93H197.18L208.463 551.477H223.163L232.154 592.79L239.302 551.477H254.272Z" fill="currentColor"/>
        <path d="M-3.2486 251.121L-5.36145 263.258H-33.2332L-31.0754 251.121H-3.2486ZM-16.6001 197.805L-27.9735 263.258H-42.8984L-31.6149 197.805H-16.6001ZM-2.12472 223.788L-4.14767 235.521H-28.3781L-26.3102 223.788H-2.12472ZM6.14689 197.805L4.03403 209.987H-24.0176L-21.8597 197.805H6.14689Z" fill="currentColor"/>
        <path d="M254.272 197.805L242.943 263.258H228.333L219.342 221.945L212.15 263.258H197.18L208.463 197.805H223.163L232.154 239.118L239.302 197.805H254.272Z" fill="currentColor"/>
        <path d="M-3.2486 781.632L-5.36145 793.77H-33.2332L-31.0754 781.632H-3.2486ZM-16.6001 728.316L-27.9735 793.77H-42.8984L-31.6149 728.316H-16.6001ZM-2.12472 754.3L-4.14767 766.033H-28.3781L-26.3102 754.3H-2.12472ZM6.14689 728.316L4.03403 740.499H-24.0176L-21.8597 728.316H6.14689Z" fill="currentColor"/>
        <path d="M254.272 728.316L242.943 793.77H228.333L219.342 752.457L212.15 793.77H197.18L208.463 728.316H223.163L232.154 769.63L239.302 728.316H254.272Z" fill="currentColor"/>
        <path d="M-3.2486 427.957L-5.36145 440.094H-33.2332L-31.0754 427.957H-3.2486ZM-16.6001 374.641L-27.9735 440.094H-42.8984L-31.6149 374.641H-16.6001ZM-2.12472 400.624L-4.14767 412.357H-28.3781L-26.3102 400.624H-2.12472ZM6.14689 374.641L4.03403 386.823H-24.0176L-21.8597 374.641H6.14689Z" fill="currentColor"/>
        <path d="M254.272 374.641L242.943 440.094H228.333L219.342 398.781L212.15 440.094H197.18L208.463 374.641H223.163L232.154 415.954L239.302 374.641H254.272Z" fill="currentColor"/>
        <path d="M-3.2486 958.468L-5.36145 970.606H-33.2332L-31.0754 958.468H-3.2486ZM-16.6001 905.152L-27.9735 970.606H-42.8984L-31.6149 905.152H-16.6001ZM-2.12472 931.136L-4.14767 942.869H-28.3781L-26.3102 931.136H-2.12472ZM6.14689 905.152L4.03403 917.335H-24.0176L-21.8597 905.152H6.14689Z" fill="currentColor"/>
        <path d="M254.272 905.152L242.943 970.606H228.333L219.342 929.293L212.15 970.606H197.18L208.463 905.152H223.163L232.154 946.465L239.302 905.152H254.272Z" fill="currentColor"/>
        <path d="M181.439 74.2847L179.326 86.4225H151.454L153.612 74.2847H181.439ZM168.087 20.9688L156.714 86.4225H141.789L153.073 20.9688H168.087ZM182.563 46.9524L180.54 58.6855H156.309L158.377 46.9524H182.563ZM190.834 20.9688L188.722 33.1514H160.67L162.828 20.9688H190.834Z" fill="currentColor"/>
        <path d="M118.275 20.9688L106.901 86.4225H91.9766L103.26 20.9688H118.275ZM150.238 20.9688L124.029 54.6396L108.879 70.8233L108.52 55.1341L118.185 41.1084L130.952 20.9688H150.238ZM120.702 86.4225L114.094 56.3479L126.771 47.7167L137.92 86.4225H120.702Z" fill="currentColor"/>
        <path d="M93.9136 20.9688L82.5851 86.4225H67.5703L78.9438 20.9688H93.9136Z" fill="currentColor"/>
        <path d="M69.5922 20.9688L58.2636 86.4225H43.6534L34.6626 45.1093L27.4698 86.4225H12.5L23.7836 20.9688H38.4837L47.4746 62.2819L54.6223 20.9688H69.5922Z" fill="currentColor"/>
        <path d="M181.439 604.793L179.326 616.93H151.454L153.612 604.793H181.439ZM168.087 551.477L156.714 616.93H141.789L153.073 551.477H168.087ZM182.563 577.46L180.54 589.193H156.309L158.377 577.46H182.563ZM190.834 551.477L188.722 563.659H160.67L162.828 551.477H190.834Z" fill="currentColor"/>
        <path d="M118.275 551.477L106.901 616.93H91.9766L103.26 551.477H118.275ZM150.238 551.477L124.029 585.147L108.879 601.331L108.52 585.642L118.185 571.616L130.952 551.477H150.238ZM120.702 616.93L114.094 586.856L126.771 578.224L137.92 616.93H120.702Z" fill="currentColor"/>
        <path d="M93.9136 551.477L82.5851 616.93H67.5703L78.9438 551.477H93.9136Z" fill="currentColor"/>
        <path d="M69.5922 551.477L58.2636 616.93H43.6534L34.6626 575.617L27.4698 616.93H12.5L23.7836 551.477H38.4837L47.4746 592.79L54.6223 551.477H69.5922Z" fill="currentColor"/>
        <path d="M181.439 251.121L179.326 263.258H151.454L153.612 251.121H181.439ZM168.087 197.805L156.714 263.258H141.789L153.073 197.805H168.087ZM182.563 223.788L180.54 235.521H156.309L158.377 223.788H182.563ZM190.834 197.805L188.722 209.987H160.67L162.828 197.805H190.834Z" fill="currentColor"/>
        <path d="M118.275 197.805L106.901 263.258H91.9766L103.26 197.805H118.275ZM150.238 197.805L124.029 231.476L108.879 247.659L108.52 231.97L118.185 217.944L130.952 197.805H150.238ZM120.702 263.258L114.094 233.184L126.771 224.553L137.92 263.258H120.702Z" fill="currentColor"/>
        <path d="M93.9136 197.805L82.5851 263.258H67.5703L78.9438 197.805H93.9136Z" fill="currentColor"/>
        <path d="M69.5922 197.805L58.2636 263.258H43.6534L34.6626 221.945L27.4698 263.258H12.5L23.7836 197.805H38.4837L47.4746 239.118L54.6223 197.805H69.5922Z" fill="currentColor"/>
        <path d="M181.439 781.632L179.326 793.77H151.454L153.612 781.632H181.439ZM168.087 728.316L156.714 793.77H141.789L153.073 728.316H168.087ZM182.563 754.3L180.54 766.033H156.309L158.377 754.3H182.563ZM190.834 728.316L188.722 740.499H160.67L162.828 728.316H190.834Z" fill="currentColor"/>
        <path d="M118.275 728.316L106.901 793.77H91.9766L103.26 728.316H118.275ZM150.238 728.316L124.029 761.987L108.879 778.171L108.52 762.482L118.185 748.456L130.952 728.316H150.238ZM120.702 793.77L114.094 763.696L126.771 755.064L137.92 793.77H120.702Z" fill="currentColor"/>
        <path d="M93.9136 728.316L82.5851 793.77H67.5703L78.9438 728.316H93.9136Z" fill="currentColor"/>
        <path d="M69.5922 728.316L58.2636 793.77H43.6534L34.6626 752.457L27.4698 793.77H12.5L23.7836 728.316H38.4837L47.4746 769.63L54.6223 728.316H69.5922Z" fill="currentColor"/>
        <path d="M181.439 427.957L179.326 440.094H151.454L153.612 427.957H181.439ZM168.087 374.641L156.714 440.094H141.789L153.073 374.641H168.087ZM182.563 400.624L180.54 412.357H156.309L158.377 400.624H182.563ZM190.834 374.641L188.722 386.823H160.67L162.828 374.641H190.834Z" fill="currentColor"/>
        <path d="M118.275 374.641L106.901 440.094H91.9766L103.26 374.641H118.275ZM150.238 374.641L124.029 408.312L108.879 424.495L108.52 408.806L118.185 394.78L130.952 374.641H150.238ZM120.702 440.094L114.094 410.02L126.771 401.389L137.92 440.094H120.702Z" fill="currentColor"/>
        <path d="M93.9136 374.641L82.5851 440.094H67.5703L78.9438 374.641H93.9136Z" fill="currentColor"/>
        <path d="M69.5922 374.641L58.2636 440.094H43.6534L34.6626 398.781L27.4698 440.094H12.5L23.7836 374.641H38.4837L47.4746 415.954L54.6223 374.641H69.5922Z" fill="currentColor"/>
        <path d="M181.439 958.468L179.326 970.606H151.454L153.612 958.468H181.439ZM168.087 905.152L156.714 970.606H141.789L153.073 905.152H168.087ZM182.563 931.136L180.54 942.869H156.309L158.377 931.136H182.563ZM190.834 905.152L188.722 917.335H160.67L162.828 905.152H190.834Z" fill="currentColor"/>
        <path d="M118.275 905.152L106.901 970.606H91.9766L103.26 905.152H118.275ZM150.238 905.152L124.029 938.823L108.879 955.007L108.52 939.318L118.185 925.292L130.952 905.152H150.238ZM120.702 970.606L114.094 940.532L126.771 931.9L137.92 970.606H120.702Z" fill="currentColor"/>
        <path d="M93.9136 905.152L82.5851 970.606H67.5703L78.9438 905.152H93.9136Z" fill="currentColor"/>
        <path d="M69.5922 905.152L58.2636 970.606H43.6534L34.6626 929.293L27.4698 970.606H12.5L23.7836 905.152H38.4837L47.4746 946.465L54.6223 905.152H69.5922Z" fill="currentColor"/>
        <path d="M94.3608 162.703L92.2479 174.84H64.3762L66.534 162.703H94.3608ZM81.0093 109.387L69.6358 174.84H54.7109L65.9945 109.387H81.0093ZM95.4847 135.37L93.4617 147.104H69.2312L71.2991 135.37H95.4847ZM103.756 109.387L101.643 121.569H73.5918L75.7496 109.387H103.756Z" fill="currentColor"/>
        <path d="M31.1968 109.387L19.8233 174.84H4.89844L16.182 109.387H31.1968ZM63.1594 109.387L36.951 143.058L21.8013 159.241L21.4417 143.552L31.1069 129.526L43.874 109.387H63.1594ZM33.6243 174.84L27.016 144.766L39.6932 136.135L50.8419 174.84H33.6243Z" fill="currentColor"/>
        <path d="M6.8277 109.387L-4.50083 174.84H-19.5156L-8.14214 109.387H6.8277Z" fill="currentColor"/>
        <path d="M94.3608 693.214L92.2479 705.352H64.3762L66.534 693.214H94.3608ZM81.0093 639.898L69.6358 705.352H54.7109L65.9945 639.898H81.0093ZM95.4847 665.882L93.4617 677.615H69.2312L71.2991 665.882H95.4847ZM103.756 639.898L101.643 652.081H73.5918L75.7496 639.898H103.756Z" fill="currentColor"/>
        <path d="M31.1968 639.898L19.8233 705.352H4.89844L16.182 639.898H31.1968ZM63.1594 639.898L36.951 673.569L21.8013 689.753L21.4417 674.064L31.1069 660.038L43.874 639.898H63.1594ZM33.6243 705.352L27.016 675.278L39.6932 666.646L50.8419 705.352H33.6243Z" fill="currentColor"/>
        <path d="M6.8277 639.898L-4.50083 705.352H-19.5156L-8.14214 639.898H6.8277Z" fill="currentColor"/>
        <path d="M94.3608 339.539L92.2479 351.676H64.3762L66.534 339.539H94.3608ZM81.0093 286.223L69.6358 351.676H54.7109L65.9945 286.223H81.0093ZM95.4847 312.206L93.4617 323.939H69.2312L71.2991 312.206H95.4847ZM103.756 286.223L101.643 298.405H73.5918L75.7496 286.223H103.756Z" fill="currentColor"/>
        <path d="M31.1968 286.223L19.8233 351.676H4.89844L16.182 286.223H31.1968ZM63.1594 286.223L36.951 319.894L21.8013 336.077L21.4417 320.388L31.1069 306.362L43.874 286.223H63.1594ZM33.6243 351.676L27.016 321.602L39.6932 312.971L50.8419 351.676H33.6243Z" fill="currentColor"/>
        <path d="M6.8277 286.223L-4.50083 351.676H-19.5156L-8.14214 286.223H6.8277Z" fill="currentColor"/>
        <path d="M94.3608 870.05L92.2479 882.188H64.3762L66.534 870.05H94.3608ZM81.0093 816.734L69.6358 882.188H54.7109L65.9945 816.734H81.0093ZM95.4847 842.718L93.4617 854.451H69.2312L71.2991 842.718H95.4847ZM103.756 816.734L101.643 828.917H73.5918L75.7496 816.734H103.756Z" fill="currentColor"/>
        <path d="M31.1968 816.734L19.8233 882.188H4.89844L16.182 816.734H31.1968ZM63.1594 816.734L36.951 850.405L21.8013 866.589L21.4417 850.9L31.1069 836.874L43.874 816.734H63.1594ZM33.6243 882.188L27.016 852.114L39.6932 843.482L50.8419 882.188H33.6243Z" fill="currentColor"/>
        <path d="M6.8277 816.734L-4.50083 882.188H-19.5156L-8.14214 816.734H6.8277Z" fill="currentColor"/>
        <path d="M94.3608 516.375L92.2479 528.512H64.3762L66.534 516.375H94.3608ZM81.0093 463.059L69.6358 528.512H54.7109L65.9945 463.059H81.0093ZM95.4847 489.042L93.4617 500.775H69.2312L71.2991 489.042H95.4847ZM103.756 463.059L101.643 475.241H73.5918L75.7496 463.059H103.756Z" fill="currentColor"/>
        <path d="M31.1968 463.059L19.8233 528.512H4.89844L16.182 463.059H31.1968ZM63.1594 463.059L36.951 496.729L21.8013 512.913L21.4417 497.224L31.1069 483.198L43.874 463.059H63.1594ZM33.6243 528.512L27.016 498.438L39.6932 489.807L50.8419 528.512H33.6243Z" fill="currentColor"/>
        <path d="M6.8277 463.059L-4.50083 528.512H-19.5156L-8.14214 463.059H6.8277Z" fill="currentColor"/>
        <path d="M94.3608 1046.89L92.2479 1059.03H64.3762L66.534 1046.89H94.3608ZM81.0093 993.574L69.6358 1059.03H54.7109L65.9945 993.574H81.0093ZM95.4847 1019.56L93.4617 1031.29H69.2312L71.2991 1019.56H95.4847ZM103.756 993.574L101.643 1005.76H73.5918L75.7496 993.574H103.756Z" fill="currentColor"/>
        <path d="M31.1968 993.574L19.8233 1059.03H4.89844L16.182 993.574H31.1968ZM63.1594 993.574L36.951 1027.25L21.8013 1043.43L21.4417 1027.74L31.1069 1013.71L43.874 993.574H63.1594ZM33.6243 1059.03L27.016 1028.95L39.6932 1020.32L50.8419 1059.03H33.6243Z" fill="currentColor"/>
        <path d="M6.8277 993.574L-4.50083 1059.03H-19.5156L-8.14214 993.574H6.8277Z" fill="currentColor"/>
        <path d="M215.884 109.387L204.511 174.84H189.586L200.87 109.387H215.884ZM247.847 109.387L221.638 143.058L206.489 159.241L206.129 143.552L215.794 129.526L228.561 109.387H247.847ZM218.312 174.84L211.704 144.766L224.381 136.135L235.529 174.84H218.312Z" fill="currentColor"/>
        <path d="M191.515 109.387L180.187 174.84H165.172L176.545 109.387H191.515Z" fill="currentColor"/>
        <path d="M167.194 109.387L155.865 174.84H141.255L132.264 133.527L125.071 174.84H110.102L121.385 109.387H136.085L145.076 150.7L152.224 109.387H167.194Z" fill="currentColor"/>
        <path d="M215.884 639.898L204.511 705.352H189.586L200.87 639.898H215.884ZM247.847 639.898L221.638 673.569L206.489 689.753L206.129 674.064L215.794 660.038L228.561 639.898H247.847ZM218.312 705.352L211.704 675.278L224.381 666.646L235.529 705.352H218.312Z" fill="currentColor"/>
        <path d="M191.515 639.898L180.187 705.352H165.172L176.545 639.898H191.515Z" fill="currentColor"/>
        <path d="M167.194 639.898L155.865 705.352H141.255L132.264 664.039L125.071 705.352H110.102L121.385 639.898H136.085L145.076 681.212L152.224 639.898H167.194Z" fill="currentColor"/>
        <path d="M215.884 286.223L204.511 351.676H189.586L200.87 286.223H215.884ZM247.847 286.223L221.638 319.894L206.489 336.077L206.129 320.388L215.794 306.362L228.561 286.223H247.847ZM218.312 351.676L211.704 321.602L224.381 312.971L235.529 351.676H218.312Z" fill="currentColor"/>
        <path d="M191.515 286.223L180.187 351.676H165.172L176.545 286.223H191.515Z" fill="currentColor"/>
        <path d="M167.194 286.223L155.865 351.676H141.255L132.264 310.363L125.071 351.676H110.102L121.385 286.223H136.085L145.076 327.536L152.224 286.223H167.194Z" fill="currentColor"/>
        <path d="M215.884 816.734L204.511 882.188H189.586L200.87 816.734H215.884ZM247.847 816.734L221.638 850.405L206.489 866.589L206.129 850.9L215.794 836.874L228.561 816.734H247.847ZM218.312 882.188L211.704 852.114L224.381 843.482L235.529 882.188H218.312Z" fill="currentColor"/>
        <path d="M191.515 816.734L180.187 882.188H165.172L176.545 816.734H191.515Z" fill="currentColor"/>
        <path d="M167.194 816.734L155.865 882.188H141.255L132.264 840.875L125.071 882.188H110.102L121.385 816.734H136.085L145.076 858.048L152.224 816.734H167.194Z" fill="currentColor"/>
        <path d="M215.884 463.059L204.511 528.512H189.586L200.87 463.059H215.884ZM247.847 463.059L221.638 496.729L206.489 512.913L206.129 497.224L215.794 483.198L228.561 463.059H247.847ZM218.312 528.512L211.704 498.438L224.381 489.807L235.529 528.512H218.312Z" fill="currentColor"/>
        <path d="M191.515 463.059L180.187 528.512H165.172L176.545 463.059H191.515Z" fill="currentColor"/>
        <path d="M167.194 463.059L155.865 528.512H141.255L132.264 487.199L125.071 528.512H110.102L121.385 463.059H136.085L145.076 504.372L152.224 463.059H167.194Z" fill="currentColor"/>
        <path d="M215.884 993.574L204.511 1059.03H189.586L200.87 993.574H215.884ZM247.847 993.574L221.638 1027.25L206.489 1043.43L206.129 1027.74L215.794 1013.71L228.561 993.574H247.847ZM218.312 1059.03L211.704 1028.95L224.381 1020.32L235.529 1059.03H218.312Z" fill="currentColor"/>
        <path d="M191.515 993.574L180.187 1059.03H165.172L176.545 993.574H191.515Z" fill="currentColor"/>
        <path d="M167.194 993.574L155.865 1059.03H141.255L132.264 1017.71L125.071 1059.03H110.102L121.385 993.574H136.085L145.076 1034.89L152.224 993.574H167.194Z" fill="currentColor"/>
    </g>
    <defs>
      <clipPath id="clip0">
        <rect width="200" height="1080" fill="currentColor"/>
      </clipPath>
    </defs>
  </symbol>
</svg>

